PathFileType	4	(X/Y/Z)	D:\Research_projects\MuscleProsody\BulkSports2Dtrack\RetrackedSports2D\p1_sample60_cam1\p1_sample60_cam1_Sports2D\p1_sample60_cam1_Sports2D_px_person00.trc
DataRate	CameraRate	NumFrames	NumMarkers	Units	OrigDataRate	OrigDataStartFrame	OrigNumFrames
60	60	12	22	m	60	195	780
Frame#	Time	Hip			RHip			RKnee			RAnkle			RBigToe			RSmallToe			RHeel			LHip			LKnee			LAnkle			LBigToe			LSmallToe			LHeel			Neck			Head			Nose			RShoulder			RElbow			RWrist			LShoulder			LElbow			LWrist		
		X1	Y1	Z1	X2	Y2	Z2	X3	Y3	Z3	X4	Y4	Z4	X5	Y5	Z5	X6	Y6	Z6	X7	Y7	Z7	X8	Y8	Z8	X9	Y9	Z9	X10	Y10	Z10	X11	Y11	Z11	X12	Y12	Z12	X13	Y13	Z13	X14	Y14	Z14	X15	Y15	Z15	X16	Y16	Z16	X17	Y17	Z17	X18	Y18	Z18	X19	Y19	Z19	X20	Y20	Z20	X21	Y21	Z21	X22	Y22	Z22
195	3.25	313.1816979736121	480.7353922898399	0.0	281.7539772799064	490.7983570695164	0.0	280.3593353313683	644.9078812856438	0.0	277.95575822169997	783.9759477652666	0.0	318.3009221552425	837.18906966451	0.0	290.75669583349605	836.4634290780197	0.0	270.6337944424142	798.7443209408174	0.0	340.5923829485929	490.68409197979855	0.0	334.6993414712975	636.064718553845	0.0	316.67028569977526	755.1022810281296	0.0	343.5375657216812	807.7530703824413	0.0	355.64000927330784	795.9384561510276	0.0	305.49270899194136	769.5721832982538	0.0	326.3130723637367	264.7976878594056	0.0	358.07054456147034	166.32076551391555	0.0	364.3786655065928	226.87236239666106	0.0	272.0288058860434	268.7750525027423	0.0	268.36153819412175	176.64371009756377	0.0	324.54199181696794	73.51999775921595	0.0	374.2196354209205	281.98426790414027	0.0	443.4749544242068	249.08863976001845	0.0	469.6185549355342	157.972386445677	0.0
196	3.2666666666666666	313.29921814893083	475.9470725251588	0.0	281.72858696442745	486.2114351681729	0.0	279.05526020748437	640.9352655686544	0.0	277.96424877607006	781.8377366006516	0.0	319.1452546176508	835.5035637398257	0.0	291.6220060784731	835.0297291352185	0.0	270.8614847658036	797.1749323595866	0.0	340.76056307130034	486.2688541603047	0.0	334.07834843970824	632.0319856576161	0.0	316.90978480458415	752.1765466444409	0.0	344.30759944516717	805.7252605934434	0.0	356.40166226022177	793.8025114191832	0.0	306.12141533907965	767.0052520777301	0.0	326.441055187871	259.64125830436524	0.0	357.7769623004205	160.69403254937984	0.0	364.6124796209874	221.7961733173075	0.0	271.9408345046167	263.5660840462181	0.0	269.20359989707094	169.43907927193106	0.0	325.6708512396289	66.38887678922343	0.0	374.39775653153475	277.3321803221629	0.0	444.0834158831164	245.06427814148336	0.0	470.40498638509473	152.95241452917088	0.0
197	3.283333333333333	313.29111035609526	472.7823868613693	0.0	281.6124613751181	483.15159198882054	0.0	278.0854774535047	638.2984765472987	0.0	277.9718201603607	780.4341190444032	0.0	319.7431745462954	834.4622911951732	0.0	292.2732850586873	834.1228900517439	0.0	271.0085490525049	796.130031942645	0.0	340.80195373726286	483.34068783161933	0.0	333.6016507268328	629.3689996079828	0.0	317.108812830029	750.1422533524865	0.0	345.197515931704	804.2896243917176	0.0	357.1699596491869	792.2318541140634	0.0	306.55898716289215	765.2374926853408	0.0	326.5344202700888	256.3916009991255	0.0	357.6696595747886	156.9765891975008	0.0	364.9111718229655	218.66298816256258	0.0	271.83753076632456	260.4089620954767	0.0	269.51225535681874	165.56089961678708	0.0	326.48468856131706	62.65841453819522	0.0	374.508467880691	274.53400872107477	0.0	444.65656207108583	243.5104107683423	0.0	471.26697638334696	150.6705492136951	0.0
198	3.3	313.1698420205515	471.3112370802982	0.0	281.40863963194283	481.6720840806917	0.0	277.3892158262422	637.0872030616442	0.0	277.97374081719516	779.8739045041394	0.0	320.01305941743914	834.1600685025595	0.0	292.6010151128939	833.8202480088706	0.0	271.11380852966704	795.7133446361323	0.0	340.7386931360774	481.9535764069479	0.0	333.2331623666887	628.1732974481826	0.0	317.30494626132673	749.1657756429587	0.0	346.1611376154029	803.6015655598916	0.0	357.93427458229667	791.386618601245	0.0	306.8777550572783	764.4276986458416	0.0	326.57586940326746	255.11507320438835	0.0	357.7282945339378	155.2375586865726	0.0	365.236904329204	217.53244714888297	0.0	271.70047772522514	259.33936379812377	0.0	269.35809653414543	164.83829325596577	0.0	327.01456555011816	62.088055092641824	0.0	374.55290859634175	273.6031844269343	0.0	445.2107953357456	244.3361477960497	0.0	472.1764824435663	151.04135404343313	0.0
199	3.3166666666666664	312.9339315240536	471.56140681402303	0.0	281.1105939697864	481.80017148818166	0.0	276.90784014889607	637.3338143819311	0.0	277.9568732832406	780.2023050297457	0.0	319.899367201663	834.6214324431496	0.0	292.5248180921858	834.1447223636939	0.0	271.19452322311685	795.9777450215963	0.0	340.57689423829	482.13380168267645	0.0	332.95123170521885	628.468031038977	0.0	317.5135562684428	749.3463163727974	0.0	347.135169749775	803.7485754273281	0.0	358.6636945239208	791.369371888171	0.0	307.1176260616349	764.6725113412517	0.0	326.56726196700515	255.81310145128174	0.0	357.93825637774836	155.49633529656447	0.0	365.5717858880974	218.40770841266638	0.0	271.52223632448744	260.33103278228816	0.0	268.82189161800113	167.11030345018418	0.0	327.28878496934186	64.45666689390475	0.0	374.53209875083496	274.5168554558072	0.0	445.73612000061377	247.43591167767764	0.0	473.0990323753148	153.97065601199728	0.0
200	3.3333333333333335	312.57354031278686	473.5186437357855	0.0	280.71126209521407	483.5301041126316	0.0	276.5902574862858	639.0126291963015	0.0	277.9007320271753	781.4082831892065	0.0	319.36866979358217	835.8075990573338	0.0	291.9975155040046	835.0717972998542	0.0	271.2417898225347	796.9283561324175	0.0	340.30896490895356	483.87345817921874	0.0	332.7482728611543	630.2053495525539	0.0	317.7301322534723	750.7004314099512	0.0	348.05499664383507	804.7324837941113	0.0	359.31453101220507	792.2028947000605	0.0	307.2883760142108	765.9938690122607	0.0	326.52496819132125	258.42828094258635	0.0	358.28912682128464	157.72337948663082	0.0	365.9152647211035	221.23966287128638	0.0	271.3072998206943	263.30583797817945	0.0	267.9762250025732	172.24397268770238	0.0	327.3201837068886	69.59135077837051	0.0	374.4456528426909	277.21885265320293	0.0	446.19780204491934	252.70120591358705	0.0	473.99957070270244	159.36348986467434	0.0
201	3.35	312.07310116520864	477.12272559103786	0.0	280.2054351979154	486.81575625688043	0.0	276.4003469054417	642.034292284544	0.0	277.7844288761528	783.4297562893776	0.0	318.4371365982226	837.6121555822668	0.0	291.03718378589616	836.5264585222375	0.0	271.2237258457311	798.53088574097	0.0	339.91787830778134	487.1269322359526	0.0	332.6290726942309	633.2693687402941	0.0	317.9312603117074	753.1606818562103	0.0	348.8664995467187	806.4702690323869	0.0	359.837034240998	793.8255054289818	0.0	307.37483100926846	768.333768720661	0.0	326.46956956916114	262.8506853062794	0.0	358.7778226551966	161.8453937104452	0.0	366.27553535478864	225.92909305458204	0.0	271.07194908792	268.13997446912936	0.0	266.8727068423822	180.1238209359324	0.0	327.107690227237	77.38271241609566	0.0	374.29243656138055	281.62333185342374	0.0	446.5448820356488	260.01901820697924	0.0	474.84782930645474	167.12309088796542	0.0
202	3.3666666666666667	311.4142428214707	482.26011982654984	0.0	279.5873026447687	491.5649294317073	0.0	276.3241625410127	646.2491105907711	0.0	277.59412119502906	786.1616567711858	0.0	317.18912277970844	839.8711589127197	0.0	289.74265160533685	838.3927601616422	0.0	271.0967280329512	800.722750734811	0.0	339.38220660484706	491.80800995224564	0.0	332.6066103810504	637.4796098245971	0.0	318.0759782268508	756.5812406053535	0.0	349.5290322844472	808.8064511835056	0.0	360.1790902249537	796.0967580944972	0.0	307.34358584236594	771.5564336538555	0.0	326.42027737530606	268.92082654184	0.0	359.41223967938777	167.74532805501647	0.0	366.6639507791584	232.32621982904396	0.0	270.8417565486648	274.66593794219676	0.0	265.53866685992915	190.6320339148456	0.0	326.64630817567485	87.77719213077357	0.0	374.0719461802933	287.6142118933425	0.0	446.71735671641835	269.2642029247552	0.0	475.6180172825432	177.145162524808	0.0
203	3.3833333333333333	310.5809729286681	488.75690937337964	0.0	278.85076956290084	497.6277780650145	0.0	276.3759099753644	651.4569304647508	0.0	277.32539709382456	789.4639753564146	0.0	315.755391478347	842.3952072183927	0.0	288.26403403539484	840.5375395381757	0.0	270.81599677147085	803.4144620973246	0.0	338.6808374707598	497.7756910174188	0.0	332.6982217538139	642.599472210523	0.0	318.11550575670685	760.7457287207242	0.0	350.0107664824063	811.5323315672229	0.0	360.291462062384	798.8123365885824	0.0	307.1556687433412	775.4597147656586	0.0	326.39790878647193	276.42992376686124	0.0	360.213628185253	175.2540383483319	0.0	367.0954816594187	240.23080707731862	0.0	270.6464048317316	282.67431910649566	0.0	263.9794376132657	203.64238816354083	0.0	325.934763761971	100.75570645785209	0.0	373.78400966804963	295.04043464889503	0.0	446.6477061534946	280.2966507101733	0.0	476.28710858166494	189.32209536628005	0.0
204	3.4	309.56594642221023	496.37587370382033	0.0	277.99373607420256	504.7832137430107	0.0	276.5952307272918	657.4111292026339	0.0	276.9789185503825	793.1632236016684	0.0	314.2781347387292	844.9949234112045	0.0	286.76224620424375	842.8221746706691	0.0	270.3380128054025	806.4789074131558	0.0	337.7980880280419	504.8168753136876	0.0	332.92388059973894	648.3476943833107	0.0	318.010460161773	765.3852849735194	0.0	350.2876461572463	814.4121523126676	0.0	360.1373346133181	801.730819130142	0.0	306.78400607587423	779.7980093175406	0.0	326.42777710169304	285.11896299636317	0.0	361.2184536196665	184.14047592585706	0.0	367.5873335509812	249.38780582056452	0.0	270.5155043238719	291.9083191082525	0.0	262.1853869518575	219.020530692627	0.0	324.98262613026947	116.31395990274044	0.0	373.42636725659776	303.7097658431467	0.0	446.2593397970053	292.9585386830615	0.0	476.83293610310574	203.5552585490966	0.0
205	3.4166666666666665	308.375951808649	504.81280856895245	0.0	277.02266615119754	512.7351375577879	0.0	277.0320105296379	663.8157947481643	0.0	276.5544265959662	797.0448546350237	0.0	312.8928397925909	847.4867677404069	0.0	285.3884423315279	845.1004457684038	0.0	269.6221493386124	809.7381291492086	0.0	336.7292377880504	512.6420598995645	0.0	333.3021881320298	654.4096149446955	0.0	317.7436124994437	770.2005121438496	0.0	350.35444657533236	817.2104699602675	0.0	359.7056394542768	804.6056101884813	0.0	306.22407096269694	784.3023367135625	0.0	326.53671294742026	294.6729613127102	0.0	362.4742355084593	194.10320125424212	0.0	368.15714310776826	259.47472467315066	0.0	270.47753023569754	302.04853821507714	0.0	260.14198885626837	236.60714184675086	0.0	323.8143743458411	134.43839200775912	0.0	372.9944038657376	313.37769354087726	0.0	445.4642228887132	307.0571100813511	0.0	477.23128054966185	219.75084434288743	0.0
206	3.433333333333333	307.03364699773056	513.6990941832133	0.0	275.9535135184283	521.1262207664221	0.0	277.7290813083731	670.3363843242079	0.0	276.0536594793711	800.8552491513796	0.0	311.718168108859	849.7061148709327	0.0	284.2717256039011	847.230585683958	0.0	268.6455267196395	812.9664137863145	0.0	335.48473245654554	520.9002361142303	0.0	333.8409702569129	660.4633695427356	0.0	317.32202039773506	774.8893205153227	0.0	350.23520996293036	819.7250989635514	0.0	359.02074645041455	807.2228173873822	0.0	305.4950477684157	788.7000267124795	0.0	326.75010647100356	304.7161815103663	0.0	364.0272204903258	204.76911880224696	0.0	368.8255158867924	270.0973515466298	0.0	270.55956610704663	312.7092368106621	0.0	257.83576308084	256.1909717468931	0.0	322.4664301275755	155.0779572139831	0.0	372.48622926815784	323.7368731554249	0.0	444.16365071064627	322.3401463805037	0.0	477.4548398343839	237.79653571969212	0.0
